<?xml version="1.0" encoding="UTF-8"?>
<!DOCTYPE svg PUBLIC "-//W3C//DTD SVG 1.1//EN" "http://www.w3.org/Graphics/SVG/1.1/DTD/svg11.dtd">
<svg xmlns="http://www.w3.org/2000/svg" version="1.1" width="500px" height="500px" style="shape-rendering:geometricPrecision; text-rendering:geometricPrecision; image-rendering:optimizeQuality; fill-rule:evenodd; clip-rule:evenodd" xmlns:xlink="http://www.w3.org/1999/xlink">
<g><path style="opacity:1" fill="#fefefe" d="M -0.5,-0.5 C 166.167,-0.5 332.833,-0.5 499.5,-0.5C 499.5,166.167 499.5,332.833 499.5,499.5C 332.833,499.5 166.167,499.5 -0.5,499.5C -0.5,332.833 -0.5,166.167 -0.5,-0.5 Z"/></g>
<g><path style="opacity:1" fill="#040404" d="M 211.5,70.5 C 216.312,79.5103 218.146,89.1769 217,99.5C 215.602,106.028 213.602,112.361 211,118.5C 195.92,139.233 191.92,161.9 199,186.5C 204.139,198.112 209.806,209.446 216,220.5C 217.028,222.844 217.694,225.177 218,227.5C 208.433,219.966 198.599,212.8 188.5,206C 162.852,186.237 157.685,162.07 173,133.5C 179.726,124.082 187.393,115.415 196,107.5C 204.761,96.7282 209.928,84.3949 211.5,70.5 Z"/></g>
<g><path style="opacity:1" fill="#060606" d="M 239.5,81.5 C 261.032,96.589 266.865,116.256 257,140.5C 250.031,148.47 242.698,156.136 235,163.5C 228.433,171.86 224.6,181.36 223.5,192C 223.906,195.845 224.406,199.679 225,203.5C 226.838,209.353 228.838,215.02 231,220.5C 213.475,203.537 209.809,183.87 220,161.5C 226.75,150.331 233.75,139.331 241,128.5C 248.54,112.62 248.04,96.9536 239.5,81.5 Z"/></g>
<g><path style="opacity:1" fill="#080808" d="M 280.5,140.5 C 281.931,140.881 282.764,141.881 283,143.5C 284.537,151.7 283.203,159.366 279,166.5C 272.356,173.476 265.356,180.143 258,186.5C 251.784,192.932 248.284,200.599 247.5,209.5C 247.884,214.671 248.717,219.671 250,224.5C 234.045,209.13 233.545,193.297 248.5,177C 256.667,170.833 264.833,164.667 273,158.5C 277.975,153.548 280.475,147.548 280.5,140.5 Z"/></g>
<g><path style="opacity:1" fill="#050505" d="M 268.5,331.5 C 267.167,332.167 265.833,332.833 264.5,333.5C 263.833,333.833 263.167,334.167 262.5,334.5C 260.833,335.167 259.167,335.833 257.5,336.5C 255.833,337.167 254.167,337.833 252.5,338.5C 251.167,338.833 249.833,339.167 248.5,339.5C 233.575,343.045 218.575,343.378 203.5,340.5C 201.833,339.833 200.167,339.167 198.5,338.5C 194.725,337.445 191.058,336.112 187.5,334.5C 186.833,334.167 186.167,333.833 185.5,333.5C 183.999,332.248 182.332,331.248 180.5,330.5C 153.15,312.947 137.316,287.947 133,255.5C 132.04,242.738 132.373,230.071 134,217.5C 137.568,213.293 142.068,210.46 147.5,209C 153.203,207.824 158.87,206.491 164.5,205C 170.74,203.031 175.406,204.864 178.5,210.5C 170.787,211.785 163.12,213.285 155.5,215C 152.382,216.059 149.382,217.392 146.5,219C 145.481,222.383 146.815,224.717 150.5,226C 159.641,228.857 168.974,230.857 178.5,232C 203.819,233.428 229.152,233.762 254.5,233C 270.171,232.758 285.505,230.425 300.5,226C 305.325,223.865 305.659,221.199 301.5,218C 287.89,213.431 273.89,210.931 259.5,210.5C 259.993,208.194 260.326,205.861 260.5,203.5C 272.967,203.823 285.301,205.323 297.5,208C 304.074,209.371 309.907,212.204 315,216.5C 315.667,217.833 316.333,219.167 317,220.5C 317.333,227.5 317.667,234.5 318,241.5C 326.701,235.44 336.201,233.94 346.5,237C 363.455,245.775 368.622,259.275 362,277.5C 352.794,293.03 339.627,303.864 322.5,310C 311.469,313.72 300.135,316.053 288.5,317C 282.211,322.471 275.544,327.304 268.5,331.5 Z"/></g>
<g><path style="opacity:1" fill="#fbfbfb" d="M 331.5,246.5 C 344.342,245.516 351.675,251.349 353.5,264C 353.344,268.457 352.178,272.624 350,276.5C 336.154,293.508 318.321,303.341 296.5,306C 300.959,300.253 304.793,294.086 308,287.5C 311.667,277.167 315.333,266.833 319,256.5C 322.512,252.134 326.679,248.801 331.5,246.5 Z"/></g>
<g><path style="opacity:1" fill="#ececec" d="M 199.5,265.5 C 209.433,263.582 212.433,267.082 208.5,276C 211.241,278.812 210.908,280.978 207.5,282.5C 206.396,280.611 205.063,278.945 203.5,277.5C 202.548,279.045 202.215,280.712 202.5,282.5C 201.167,282.5 199.833,282.5 198.5,282.5C 198.635,276.819 198.968,271.152 199.5,265.5 Z"/></g>
<g><path style="opacity:1" fill="#e4e4e4" d="M 212.5,265.5 C 216.5,265.5 220.5,265.5 224.5,265.5C 224.5,266.833 224.5,268.167 224.5,269.5C 221.753,269.187 219.086,269.52 216.5,270.5C 218.396,271.466 220.396,271.799 222.5,271.5C 222.5,272.833 222.5,274.167 222.5,275.5C 220.396,275.201 218.396,275.534 216.5,276.5C 218.743,277.474 221.076,277.808 223.5,277.5C 223.5,279.167 223.5,280.833 223.5,282.5C 219.833,282.5 216.167,282.5 212.5,282.5C 212.5,276.833 212.5,271.167 212.5,265.5 Z"/></g>
<g><path style="opacity:1" fill="#e2e2e2" d="M 225.5,265.5 C 227.199,265.34 228.866,265.506 230.5,266C 232.813,273.462 233.813,273.295 233.5,265.5C 234.833,265.5 236.167,265.5 237.5,265.5C 237.5,271.167 237.5,276.833 237.5,282.5C 235.712,282.785 234.045,282.452 232.5,281.5C 230.08,273.519 229.08,273.852 229.5,282.5C 227.833,282.5 226.167,282.5 224.5,282.5C 224.532,276.811 224.866,271.145 225.5,265.5 Z"/></g>
<g><path style="opacity:1" fill="#f4f4f4" d="M 238.5,265.5 C 242.5,265.5 246.5,265.5 250.5,265.5C 250.5,266.833 250.5,268.167 250.5,269.5C 249.167,269.5 247.833,269.5 246.5,269.5C 246.5,273.833 246.5,278.167 246.5,282.5C 245.167,282.5 243.833,282.5 242.5,282.5C 242.826,278.116 242.492,273.783 241.5,269.5C 240.833,269.833 240.167,270.167 239.5,270.5C 238.548,268.955 238.215,267.288 238.5,265.5 Z"/></g>
<g><path style="opacity:1" fill="#efefef" d="M 186.5,265.5 C 189.518,265.335 192.518,265.502 195.5,266C 196,266.5 196.5,267 197,267.5C 196.805,270.882 196.972,274.215 197.5,277.5C 197.124,279.383 196.124,280.883 194.5,282C 191.518,282.498 188.518,282.665 185.5,282.5C 185.532,276.811 185.866,271.145 186.5,265.5 Z"/></g>
<g><path style="opacity:1" fill="#eaeaea" d="M 253.5,265.5 C 255.516,266.486 256.849,268.153 257.5,270.5C 258.95,269.15 259.617,267.484 259.5,265.5C 260.833,265.5 262.167,265.5 263.5,265.5C 261.353,270.949 260.02,276.615 259.5,282.5C 258.167,282.5 256.833,282.5 255.5,282.5C 255.292,277.042 253.958,271.875 251.5,267C 252.416,266.722 253.082,266.222 253.5,265.5 Z"/></g>
<g><path style="opacity:1" fill="#080808" d="M 203.5,269.5 C 206.957,269.667 207.29,270.667 204.5,272.5C 203.614,271.675 203.281,270.675 203.5,269.5 Z"/></g>
<g><path style="opacity:1" fill="#0e0e0e" d="M 190.5,269.5 C 192.337,269.639 192.67,270.306 191.5,271.5C 190.702,271.043 190.369,270.376 190.5,269.5 Z"/></g>
<g><path style="opacity:1" fill="#2e2e2e" d="M 190.5,275.5 C 193.012,276.216 193.012,277.216 190.5,278.5C 189.438,277.575 189.438,276.575 190.5,275.5 Z"/></g>
<g><path style="opacity:1" fill="#535353" d="M 267.5,308.5 C 269.832,309.162 270.499,310.495 269.5,312.5C 268.295,311.423 267.628,310.09 267.5,308.5 Z"/></g>
<g><path style="opacity:1" fill="#a3a3a3" d="M 244.5,314.5 C 246.337,314.639 246.67,315.306 245.5,316.5C 244.702,316.043 244.369,315.376 244.5,314.5 Z"/></g>
<g><path style="opacity:1" fill="#090909" d="M 313.5,327.5 C 316.637,328.713 319.637,330.213 322.5,332C 321.188,334.941 319.688,337.774 318,340.5C 315.059,339.188 312.226,337.688 309.5,336C 310.932,333.197 312.266,330.364 313.5,327.5 Z"/></g>
<g><path style="opacity:1" fill="#efefef" d="M 180.5,330.5 C 182.332,331.248 183.999,332.248 185.5,333.5C 185.53,334.497 185.03,335.164 184,335.5C 179.433,335.52 175.933,337.354 173.5,341C 175.67,342.586 178.004,343.92 180.5,345C 204.658,349.729 228.991,350.729 253.5,348C 258.548,346.791 263.548,345.458 268.5,344C 270.754,343.376 272.421,342.043 273.5,340C 270.735,337.413 267.735,335.246 264.5,333.5C 265.833,332.833 267.167,332.167 268.5,331.5C 273.952,332.596 279.285,334.429 284.5,337C 288.5,339.333 288.5,341.667 284.5,344C 278.754,346.55 272.754,348.216 266.5,349C 235.057,352.853 203.724,352.186 172.5,347C 168.035,346.028 164.369,343.862 161.5,340.5C 162.313,339.186 163.313,338.019 164.5,337C 169.332,334.874 174.332,333.207 179.5,332C 180.056,331.617 180.389,331.117 180.5,330.5 Z"/></g>
<g><path style="opacity:1" fill="#d3d3d3" d="M 185.5,333.5 C 186.167,333.833 186.833,334.167 187.5,334.5C 186.337,336.982 184.337,338.316 181.5,338.5C 181.297,340.39 181.963,341.89 183.5,343C 188.399,344.45 193.399,345.284 198.5,345.5C 198.918,346.222 199.584,346.722 200.5,347C 217.5,347.667 234.5,347.667 251.5,347C 256.116,345.509 260.782,344.009 265.5,342.5C 265.833,341.833 266.167,341.167 266.5,340.5C 264.497,338.867 263.164,336.867 262.5,334.5C 263.167,334.167 263.833,333.833 264.5,333.5C 267.735,335.246 270.735,337.413 273.5,340C 272.421,342.043 270.754,343.376 268.5,344C 263.548,345.458 258.548,346.791 253.5,348C 228.991,350.729 204.658,349.729 180.5,345C 178.004,343.92 175.67,342.586 173.5,341C 175.933,337.354 179.433,335.52 184,335.5C 185.03,335.164 185.53,334.497 185.5,333.5 Z"/></g>
<g><path style="opacity:1" fill="#969696" d="M 187.5,334.5 C 191.058,336.112 194.725,337.445 198.5,338.5C 198.903,341.406 200.569,343.239 203.5,344C 217.476,345.887 231.476,345.887 245.5,344C 249.039,343.578 251.373,341.745 252.5,338.5C 254.167,337.833 255.833,337.167 257.5,336.5C 256.251,342.156 252.585,344.989 246.5,345C 230.512,346.776 214.512,346.943 198.5,345.5C 193.399,345.284 188.399,344.45 183.5,343C 181.963,341.89 181.297,340.39 181.5,338.5C 184.337,338.316 186.337,336.982 187.5,334.5 Z"/></g>
<g><path style="opacity:1" fill="#6d6d6d" d="M 198.5,338.5 C 200.167,339.167 201.833,339.833 203.5,340.5C 203.953,341.458 204.619,342.292 205.5,343C 218.167,345 230.833,345 243.5,343C 245.881,342.777 247.547,341.61 248.5,339.5C 249.833,339.167 251.167,338.833 252.5,338.5C 251.373,341.745 249.039,343.578 245.5,344C 231.476,345.887 217.476,345.887 203.5,344C 200.569,343.239 198.903,341.406 198.5,338.5 Z"/></g>
<g><path style="opacity:1" fill="#b3b3b3" d="M 262.5,334.5 C 263.164,336.867 264.497,338.867 266.5,340.5C 266.167,341.167 265.833,341.833 265.5,342.5C 260.782,344.009 256.116,345.509 251.5,347C 234.5,347.667 217.5,347.667 200.5,347C 199.584,346.722 198.918,346.222 198.5,345.5C 214.512,346.943 230.512,346.776 246.5,345C 252.585,344.989 256.251,342.156 257.5,336.5C 259.167,335.833 260.833,335.167 262.5,334.5 Z"/></g>
<g><path style="opacity:1" fill="#424242" d="M 248.5,339.5 C 247.547,341.61 245.881,342.777 243.5,343C 230.833,345 218.167,345 205.5,343C 204.619,342.292 203.953,341.458 203.5,340.5C 218.575,343.378 233.575,343.045 248.5,339.5 Z"/></g>
</svg>
