<?xml version="1.0" encoding="UTF-8"?>
<!DOCTYPE svg PUBLIC "-//W3C//DTD SVG 1.1//EN" "http://www.w3.org/Graphics/SVG/1.1/DTD/svg11.dtd">
<svg xmlns="http://www.w3.org/2000/svg" version="1.1" width="500px" height="500px" style="shape-rendering:geometricPrecision; text-rendering:geometricPrecision; image-rendering:optimizeQuality; fill-rule:evenodd; clip-rule:evenodd" xmlns:xlink="http://www.w3.org/1999/xlink">
<g><path style="opacity:1" fill="#f4eacc" d="M -0.5,-0.5 C 166.167,-0.5 332.833,-0.5 499.5,-0.5C 499.5,166.167 499.5,332.833 499.5,499.5C 332.833,499.5 166.167,499.5 -0.5,499.5C -0.5,332.833 -0.5,166.167 -0.5,-0.5 Z"/></g>
<g><path style="opacity:1" fill="#d5c6ac" d="M 144.5,142.5 C 143.98,147.03 142.814,147.363 141,143.5C 140.527,145.779 139.527,147.779 138,149.5C 137.374,147.009 136.541,147.009 135.5,149.5C 132.971,147.937 131.971,145.604 132.5,142.5C 133.496,142.414 134.329,142.748 135,143.5C 136.317,134.514 138.984,134.18 143,142.5C 143.69,141.262 144.19,141.262 144.5,142.5 Z"/></g>
<g><path style="opacity:1" fill="#4f2c23" d="M 222.5,153.5 C 237.577,153.037 252.577,153.87 267.5,156C 275.128,157.876 282.462,160.543 289.5,164C 292.372,166.537 294.872,169.37 297,172.5C 311.347,165.411 320.68,169.744 325,185.5C 327.234,205.576 318.734,218.41 299.5,224C 305.125,226.479 310.458,229.479 315.5,233C 324.017,242.024 323.35,250.357 313.5,258C 299.364,265.284 284.364,269.618 268.5,271C 238.81,274.089 209.81,271.089 181.5,262C 174.556,258.947 168.389,254.781 163,249.5C 159.831,244.402 159.831,239.402 163,234.5C 165.537,231.628 168.37,229.128 171.5,227C 178.92,223.92 186.253,220.753 193.5,217.5C 188.992,209.471 186.658,200.804 186.5,191.5C 187.262,183.07 188.428,174.736 190,166.5C 192.708,162.896 196.208,160.396 200.5,159C 207.87,156.811 215.203,154.978 222.5,153.5 Z"/></g>
<g><path style="opacity:1" fill="#a18a77" d="M 125.5,152.5 C 127.894,153.015 130.228,153.681 132.5,154.5C 131.047,155.825 131.381,156.658 133.5,157C 133.167,157.333 132.833,157.667 132.5,158C 133.756,158.417 134.423,159.25 134.5,160.5C 133.833,160.833 133.167,161.167 132.5,161.5C 131.529,158.931 129.863,156.931 127.5,155.5C 127.167,156.167 126.833,156.833 126.5,157.5C 125.548,155.955 125.215,154.288 125.5,152.5 Z"/></g>
<g><path style="opacity:1" fill="#e8dcc0" d="M 219.5,156.5 C 235.915,155.963 252.248,156.796 268.5,159C 277.999,160.711 286.166,164.878 293,171.5C 293.183,180.183 291.849,180.516 289,172.5C 288.667,172.833 288.333,173.167 288,173.5C 282.241,168.871 275.741,165.704 268.5,164C 248.705,159.024 229.039,159.358 209.5,165C 203.426,167.193 198.759,171.026 195.5,176.5C 190.347,172.848 190.347,169.015 195.5,165C 203.13,160.847 211.13,158.014 219.5,156.5 Z"/></g>
<g><path style="opacity:1" fill="#d6c7ad" d="M 142.5,165.5 C 140.149,163.93 137.482,163.097 134.5,163C 138.326,162.313 138.326,161.48 134.5,160.5C 134.423,159.25 133.756,158.417 132.5,158C 132.833,157.667 133.167,157.333 133.5,157C 131.381,156.658 131.047,155.825 132.5,154.5C 132.833,154.5 133.167,154.5 133.5,154.5C 134.967,151.103 136.967,150.77 139.5,153.5C 139.291,154.086 138.957,154.586 138.5,155C 140.712,158.134 142.046,161.634 142.5,165.5 Z"/></g>
<g><path style="opacity:1" fill="#cfbfa6" d="M 125.5,152.5 C 125.215,154.288 125.548,155.955 126.5,157.5C 126.833,156.833 127.167,156.167 127.5,155.5C 129.863,156.931 131.529,158.931 132.5,161.5C 132.678,164.216 133.178,166.883 134,169.5C 134.333,168.833 134.667,168.167 135,167.5C 136.356,168.38 137.856,168.714 139.5,168.5C 139.5,169.5 139.5,170.5 139.5,171.5C 138.022,171.238 136.689,171.571 135.5,172.5C 136.641,175.522 138.641,177.522 141.5,178.5C 140.833,178.5 140.5,178.833 140.5,179.5C 138.955,178.42 137.455,178.42 136,179.5C 134.238,179.056 134.405,178.556 136.5,178C 134.567,177.217 133.067,177.717 132,179.5C 131.107,178.289 130.274,178.289 129.5,179.5C 130.588,180.934 131.922,181.934 133.5,182.5C 131.372,183.629 129.039,183.796 126.5,183C 127.634,181.984 127.301,181.317 125.5,181C 127.373,179.915 129.04,178.582 130.5,177C 126.047,175.274 121.714,173.274 117.5,171C 116.226,170.023 116.226,169.189 117.5,168.5C 119.649,169.736 121.982,170.736 124.5,171.5C 128.187,173.19 128.854,172.69 126.5,170C 127.308,169.692 127.975,169.192 128.5,168.5C 128.044,163.782 126.044,159.948 122.5,157C 123.711,155.887 123.711,154.72 122.5,153.5C 123.325,152.614 124.325,152.281 125.5,152.5 Z"/></g>
<g><path style="opacity:1" fill="#eee2c5" d="M 134.5,160.5 C 138.326,161.48 138.326,162.313 134.5,163C 137.482,163.097 140.149,163.93 142.5,165.5C 142.639,169.889 143.639,174.056 145.5,178C 144.207,178.49 142.873,178.657 141.5,178.5C 138.641,177.522 136.641,175.522 135.5,172.5C 136.689,171.571 138.022,171.238 139.5,171.5C 139.5,170.5 139.5,169.5 139.5,168.5C 137.856,168.714 136.356,168.38 135,167.5C 134.667,168.167 134.333,168.833 134,169.5C 133.178,166.883 132.678,164.216 132.5,161.5C 133.167,161.167 133.833,160.833 134.5,160.5 Z"/></g>
<g><path style="opacity:1" fill="#d3c4aa" d="M 160.5,168.5 C 159.047,169.825 159.381,170.658 161.5,171C 161.5,172 161.5,173 161.5,174C 159.412,175.03 157.245,175.863 155,176.5C 153.97,176.164 153.47,175.497 153.5,174.5C 153.5,173.5 153.5,172.5 153.5,171.5C 152.502,169.55 152.668,167.55 154,165.5C 154.333,166.833 154.667,168.167 155,169.5C 155.497,166.854 155.664,164.187 155.5,161.5C 154.448,161.649 153.448,161.483 152.5,161C 153.765,159.663 154.265,158.163 154,156.5C 153.085,157.328 152.419,158.328 152,159.5C 151.25,158.874 150.416,158.374 149.5,158C 150.451,157.282 150.617,156.449 150,155.5C 149.184,156.823 148.017,157.489 146.5,157.5C 148.217,155.234 149.551,152.734 150.5,150C 152.905,149.719 152.905,150.385 150.5,152C 151,152.167 151.5,152.333 152,152.5C 154.537,151.127 156.703,149.627 158.5,148C 158.451,150.046 158.785,152.213 159.5,154.5C 160.251,153.624 160.751,152.624 161,151.5C 161.333,154.5 161.667,157.5 162,160.5C 163.73,159.26 165.563,158.26 167.5,157.5C 169.266,157.434 170.266,158.268 170.5,160C 168.217,164.301 164.884,166.134 160.5,165.5C 160.5,166.5 160.5,167.5 160.5,168.5 Z"/></g>
<g><path style="opacity:1" fill="#d8caaf" d="M 228.5,165.5 C 238.172,165.334 247.839,165.5 257.5,166C 246.572,167.265 235.572,167.932 224.5,168C 218.852,168.938 213.519,170.771 208.5,173.5C 207.304,173.154 207.304,172.654 208.5,172C 214.893,168.577 221.56,166.411 228.5,165.5 Z"/></g>
<g><path style="opacity:1" fill="#755749" d="M 197.5,167.5 C 198.002,165.915 199.002,165.415 200.5,166C 199.756,167.039 198.756,167.539 197.5,167.5 Z"/></g>
<g><path style="opacity:1" fill="#654539" d="M 273.5,164.5 C 277.88,163.478 281.88,164.645 285.5,168C 281.55,166.965 277.55,165.798 273.5,164.5 Z"/></g>
<g><path style="opacity:1" fill="#b09c87" d="M 124.5,171.5 C 121.982,170.736 119.649,169.736 117.5,168.5C 119.628,167.371 121.961,167.204 124.5,168C 123.316,169.145 123.316,170.312 124.5,171.5 Z"/></g>
<g><path style="opacity:1" fill="#775a4c" d="M 197.5,167.5 C 196.878,168.627 196.045,169.627 195,170.5C 194.481,168.511 195.314,167.511 197.5,167.5 Z"/></g>
<g><path style="opacity:1" fill="#a7917d" d="M 268.5,169.5 C 268.56,168.957 268.893,168.624 269.5,168.5C 270.795,169.098 272.128,169.598 273.5,170C 271.735,170.64 270.068,170.473 268.5,169.5 Z"/></g>
<g><path style="opacity:1" fill="#eadec1" d="M 297.5,221.5 C 295.883,220.962 294.216,220.629 292.5,220.5C 292.833,219.833 293.167,219.167 293.5,218.5C 296.311,218.174 298.978,217.341 301.5,216C 300.263,215.768 299.263,215.268 298.5,214.5C 298.376,213.803 298.376,212.97 298.5,212C 311.592,207.32 316.426,198.153 313,184.5C 312.215,182.714 311.049,181.214 309.5,180C 305.595,179.249 301.929,179.749 298.5,181.5C 297.536,177.207 298.869,174.04 302.5,172C 316.306,171.138 322.973,177.805 322.5,192C 321.838,208.485 313.505,218.319 297.5,221.5 Z"/></g>
<g><path style="opacity:1" fill="#b29d88" d="M 227.5,173.5 C 231.514,173.334 235.514,173.501 239.5,174C 229.131,175.217 219.131,176.717 209.5,178.5C 215.324,175.81 221.324,174.143 227.5,173.5 Z"/></g>
<g><path style="opacity:1" fill="#bcaa93" d="M 132.5,142.5 C 131.971,145.604 132.971,147.937 135.5,149.5C 136.541,147.009 137.374,147.009 138,149.5C 139.527,147.779 140.527,145.779 141,143.5C 142.814,147.363 143.98,147.03 144.5,142.5C 145.306,143.997 145.972,145.664 146.5,147.5C 145.691,149.071 145.357,150.738 145.5,152.5C 144.07,152.579 142.736,152.246 141.5,151.5C 141.167,152.167 140.833,152.833 140.5,153.5C 141.202,156.039 142.535,158.206 144.5,160C 143.424,161.726 143.257,163.559 144,165.5C 144.561,162.721 145.394,160.054 146.5,157.5C 148.017,157.489 149.184,156.823 150,155.5C 150.617,156.449 150.451,157.282 149.5,158C 150.416,158.374 151.25,158.874 152,159.5C 152.419,158.328 153.085,157.328 154,156.5C 154.265,158.163 153.765,159.663 152.5,161C 153.448,161.483 154.448,161.649 155.5,161.5C 155.664,164.187 155.497,166.854 155,169.5C 154.667,168.167 154.333,166.833 154,165.5C 152.668,167.55 152.502,169.55 153.5,171.5C 151.17,169.458 150.004,166.792 150,163.5C 148.887,164.711 147.72,164.711 146.5,163.5C 144.202,169.348 144.702,175.014 148,180.5C 149.331,178.004 151.164,176.004 153.5,174.5C 153.47,175.497 153.97,176.164 155,176.5C 157.245,175.863 159.412,175.03 161.5,174C 161.5,173 161.5,172 161.5,171C 159.381,170.658 159.047,169.825 160.5,168.5C 161.985,167.065 163.318,167.232 164.5,169C 163.833,169.333 163.167,169.667 162.5,170C 167.173,170.934 167.506,172.434 163.5,174.5C 166.066,175.279 168.066,176.779 169.5,179C 167.215,178.775 165.048,177.941 163,176.5C 162.167,176.667 161.333,176.833 160.5,177C 161.833,177.333 163.167,177.667 164.5,178C 161.332,178.582 160.999,179.582 163.5,181C 160.833,181.667 158.167,181.667 155.5,181C 156.328,180.085 157.328,179.419 158.5,179C 158,178.833 157.5,178.667 157,178.5C 154.608,180.183 151.774,181.683 148.5,183C 149.416,183.374 150.25,183.874 151,184.5C 151.579,189.527 151.913,194.527 152,199.5C 149.95,197.112 147.616,195.112 145,193.5C 143.273,193.646 143.106,194.313 144.5,195.5C 143.284,197.24 141.618,198.24 139.5,198.5C 134.409,198.125 130.409,195.958 127.5,192C 127.833,191.5 128.167,191 128.5,190.5C 128.296,191.529 128.796,192.529 130,193.5C 131.617,192.464 131.784,191.297 130.5,190C 131.448,189.517 132.448,189.351 133.5,189.5C 138.474,189.18 143.307,189.513 148,190.5C 147.227,187.299 146.727,183.965 146.5,180.5C 144.5,180.167 142.5,179.833 140.5,179.5C 140.5,178.833 140.833,178.5 141.5,178.5C 142.873,178.657 144.207,178.49 145.5,178C 143.639,174.056 142.639,169.889 142.5,165.5C 142.046,161.634 140.712,158.134 138.5,155C 138.957,154.586 139.291,154.086 139.5,153.5C 136.967,150.77 134.967,151.103 133.5,154.5C 131.186,152.523 128.853,150.523 126.5,148.5C 127.728,146.679 129.394,145.679 131.5,145.5C 131.16,143.452 131.493,142.452 132.5,142.5 Z"/></g>
<g><path style="opacity:1" fill="#f3e9cb" d="M 153.5,171.5 C 153.5,172.5 153.5,173.5 153.5,174.5C 151.164,176.004 149.331,178.004 148,180.5C 144.702,175.014 144.202,169.348 146.5,163.5C 147.72,164.711 148.887,164.711 150,163.5C 150.004,166.792 151.17,169.458 153.5,171.5 Z"/></g>
<g><path style="opacity:1" fill="#f1e7c9" d="M 211.5,235.5 C 213.276,235.206 215.276,235.04 217.5,235C 215.26,234.023 212.927,233.523 210.5,233.5C 208.858,232.197 207.191,230.864 205.5,229.5C 209.777,229.895 214.111,229.395 218.5,228C 213.286,227.988 208.286,227.155 203.5,225.5C 200.63,224.472 198.63,222.472 197.5,219.5C 197.709,218.914 198.043,218.414 198.5,218C 196.269,216.723 194.602,214.889 193.5,212.5C 194.325,211.614 195.325,211.281 196.5,211.5C 195.167,210.5 193.833,209.5 192.5,208.5C 196.645,208.197 200.979,208.03 205.5,208C 201.147,207.164 196.813,206.331 192.5,205.5C 189.954,204.021 189.954,202.521 192.5,201C 190.45,199.364 189.45,197.198 189.5,194.5C 195.401,196.38 201.401,197.547 207.5,198C 201.476,196.162 195.476,194.329 189.5,192.5C 189.816,187.156 190.316,181.822 191,176.5C 197.069,182.286 204.236,186.119 212.5,188C 235.898,192.903 259.231,192.57 282.5,187C 287.517,185.162 291.85,182.328 295.5,178.5C 297.438,196.644 293.938,213.644 285,229.5C 262.154,252.417 237.654,254.417 211.5,235.5 Z"/></g>
<g><path style="opacity:1" fill="#886e5d" d="M 272.5,178.5 C 274.199,178.34 275.866,178.506 277.5,179C 273.928,180.405 270.261,180.738 266.5,180C 268.708,179.809 270.708,179.309 272.5,178.5 Z"/></g>
<g><path style="opacity:1" fill="#9b8371" d="M 380.5,178.5 C 380.167,179.5 379.5,180.167 378.5,180.5C 376.418,180.472 374.584,181.139 373,182.5C 371.396,181.932 370.73,180.932 371,179.5C 373.543,178.793 375.709,177.46 377.5,175.5C 377.911,176.262 378.077,177.262 378,178.5C 378.977,177.226 379.811,177.226 380.5,178.5 Z"/></g>
<g><path style="opacity:1" fill="#dfd2b7" d="M 140.5,179.5 C 142.5,179.833 144.5,180.167 146.5,180.5C 146.727,183.965 147.227,187.299 148,190.5C 143.307,189.513 138.474,189.18 133.5,189.5C 133.269,186.215 134.603,183.715 137.5,182C 136.181,181.805 134.847,181.972 133.5,182.5C 131.922,181.934 130.588,180.934 129.5,179.5C 130.274,178.289 131.107,178.289 132,179.5C 133.067,177.717 134.567,177.217 136.5,178C 134.405,178.556 134.238,179.056 136,179.5C 137.455,178.42 138.955,178.42 140.5,179.5 Z"/></g>
<g><path style="opacity:1" fill="#efe4c6" d="M 302.5,182.5 C 305.365,182.055 307.865,182.722 310,184.5C 313.505,196.88 309.338,205.213 297.5,209.5C 297.167,208.833 296.833,208.167 296.5,207.5C 297.913,200.237 298.913,192.904 299.5,185.5C 300.855,184.812 301.855,183.812 302.5,182.5 Z"/></g>
<g><path style="opacity:1" fill="#d9cab0" d="M 283.5,180.5 C 284.239,180.369 284.906,180.536 285.5,181C 279.743,184.692 273.409,186.692 266.5,187C 253.396,187.913 240.396,187.246 227.5,185C 235.672,185.015 243.838,185.515 252,186.5C 262.941,186.077 273.441,184.077 283.5,180.5 Z"/></g>
<g><path style="opacity:1" fill="#725446" d="M 312.5,177.5 C 312.897,176.475 313.563,176.308 314.5,177C 322.213,184.987 323.379,193.821 318,203.5C 319.461,197.686 319.794,191.686 319,185.5C 317.726,182.064 315.559,179.397 312.5,177.5 Z"/></g>
<g><path style="opacity:1" fill="#ae9984" d="M 170.5,186.5 C 169.508,186.328 168.842,186.662 168.5,187.5C 166.306,188.384 163.972,189.384 161.5,190.5C 161.574,188.589 162.574,187.422 164.5,187C 169.239,184.981 171.239,184.814 170.5,186.5 Z"/></g>
<g><path style="opacity:1" fill="#a08a76" d="M 195.5,189.5 C 197.435,188.291 199.435,188.458 201.5,190C 199.455,190.49 197.455,190.323 195.5,189.5 Z"/></g>
<g><path style="opacity:1" fill="#68493c" d="M 170.5,186.5 C 173.125,187.441 173.125,188.607 170.5,190C 171.167,190.333 171.833,190.667 172.5,191C 171.225,195.093 171.559,199.093 173.5,203C 172.949,206.089 171.783,208.922 170,211.5C 168.534,203.672 168.034,195.672 168.5,187.5C 168.842,186.662 169.508,186.328 170.5,186.5 Z"/></g>
<g><path style="opacity:1" fill="#56342a" d="M 289.5,189.5 C 293.405,201.58 291.071,212.58 282.5,222.5C 284.653,216.55 286.82,210.217 289,203.5C 289.499,198.845 289.666,194.179 289.5,189.5 Z"/></g>
<g><path style="opacity:1" fill="#f1e7c9" d="M 360.5,198.5 C 359.368,201.894 358.034,205.227 356.5,208.5C 354.836,206.509 353.169,204.509 351.5,202.5C 351.64,200.876 350.973,199.71 349.5,199C 350.264,196.931 350.764,194.764 351,192.5C 351.419,196.852 352.086,197.185 353,193.5C 353.333,194.5 353.667,195.5 354,196.5C 354.188,192.489 356.021,191.156 359.5,192.5C 359.498,194.537 359.832,196.537 360.5,198.5 Z"/></g>
<g><path style="opacity:1" fill="#806454" d="M 189.5,192.5 C 195.476,194.329 201.476,196.162 207.5,198C 201.401,197.547 195.401,196.38 189.5,194.5C 189.5,193.833 189.5,193.167 189.5,192.5 Z"/></g>
<g><path style="opacity:1" fill="#ccbca3" d="M 362.5,187.5 C 363.043,187.56 363.376,187.893 363.5,188.5C 362.091,191.727 361.091,195.06 360.5,198.5C 359.832,196.537 359.498,194.537 359.5,192.5C 356.021,191.156 354.188,192.489 354,196.5C 353.667,195.5 353.333,194.5 353,193.5C 352.086,197.185 351.419,196.852 351,192.5C 350.764,194.764 350.264,196.931 349.5,199C 350.973,199.71 351.64,200.876 351.5,202.5C 347.98,203.349 344.647,204.682 341.5,206.5C 341.137,207.183 340.804,207.85 340.5,208.5C 338.246,207.585 336.246,206.252 334.5,204.5C 336.046,203.316 337.713,202.316 339.5,201.5C 338.248,199.999 337.248,198.332 336.5,196.5C 337.501,194.064 338.668,194.064 340,196.5C 340.667,195.833 341.333,195.167 342,194.5C 343.261,194.759 344.261,195.426 345,196.5C 345.333,195.833 345.667,195.167 346,194.5C 346.833,195.5 347.667,196.5 348.5,197.5C 349.655,194.554 349.821,191.554 349,188.5C 348.667,189.167 348.333,189.833 348,190.5C 347.333,189.167 346.667,187.833 346,186.5C 345.682,191.628 343.682,192.628 340,189.5C 339.282,190.451 338.449,190.617 337.5,190C 338.925,188.638 339.758,187.138 340,185.5C 341.154,186.743 342.488,187.743 344,188.5C 344.18,185.044 344.847,181.711 346,178.5C 347.264,178.64 348.431,178.64 349.5,178.5C 349.023,177.522 348.357,176.689 347.5,176C 347.833,175.667 348.167,175.333 348.5,175C 350.545,176.177 352.878,177.177 355.5,178C 357.089,181.478 358.755,184.978 360.5,188.5C 361.183,188.137 361.85,187.804 362.5,187.5 Z"/></g>
<g><path style="opacity:1" fill="#ac9782" d="M 231.5,197.5 C 237.842,197.334 244.175,197.5 250.5,198C 246.886,198.936 243.22,199.436 239.5,199.5C 236.833,198.833 234.167,198.167 231.5,197.5 Z"/></g>
<g><path style="opacity:1" fill="#6d4e41" d="M 231.5,197.5 C 234.167,198.167 236.833,198.833 239.5,199.5C 231.86,200.183 224.527,199.016 217.5,196C 222.063,196.752 226.73,197.252 231.5,197.5 Z"/></g>
<g><path style="opacity:1" fill="#856b5a" d="M 179.5,211.5 C 180.127,205.855 180.627,200.189 181,194.5C 181.667,199.167 181.667,203.833 181,208.5C 180.768,209.737 180.268,210.737 179.5,211.5 Z"/></g>
<g><path style="opacity:1" fill="#806455" d="M 161.5,190.5 C 159.605,197.103 159.105,203.77 160,210.5C 158.437,205.282 158.104,199.949 159,194.5C 159.2,192.68 160.034,191.347 161.5,190.5 Z"/></g>
<g><path style="opacity:1" fill="#937b69" d="M 195.5,203.5 C 197.726,202.441 200.059,202.608 202.5,204C 200.153,204.334 197.819,204.167 195.5,203.5 Z"/></g>
<g><path style="opacity:1" fill="#927967" d="M 137.5,204.5 C 142.034,204.267 146.368,205.1 150.5,207C 148.141,207.208 145.974,207.374 144,207.5C 139.922,204.464 136.922,205.464 135,210.5C 134.034,207.66 134.867,205.66 137.5,204.5 Z"/></g>
<g><path style="opacity:1" fill="#ae9984" d="M 192.5,205.5 C 196.813,206.331 201.147,207.164 205.5,208C 200.979,208.03 196.645,208.197 192.5,208.5C 191.375,207.652 191.375,206.652 192.5,205.5 Z"/></g>
<g><path style="opacity:1" fill="#8d7463" d="M 157.5,212.5 C 155.456,211.969 153.789,210.802 152.5,209C 154.772,209.077 156.438,210.243 157.5,212.5 Z"/></g>
<g><path style="opacity:1" fill="#bcaa93" d="M 380.5,178.5 C 379.811,177.226 378.977,177.226 378,178.5C 378.077,177.262 377.911,176.262 377.5,175.5C 375.709,177.46 373.543,178.793 371,179.5C 370.73,180.932 371.396,181.932 373,182.5C 374.584,181.139 376.418,180.472 378.5,180.5C 377.4,181.558 376.066,182.392 374.5,183C 376.769,183.758 378.936,183.591 381,182.5C 384.167,183.667 384.333,185.167 381.5,187C 382.524,188.367 382.024,189.2 380,189.5C 378.347,189.18 377.347,188.18 377,186.5C 376.727,188.329 375.893,189.829 374.5,191C 375.449,191.617 376.282,191.451 377,190.5C 377.309,191.766 377.809,192.933 378.5,194C 377.994,196.694 376.827,198.194 375,198.5C 372.535,196.945 372.035,194.945 373.5,192.5C 371.219,191.815 368.886,191.649 366.5,192C 366.862,189.73 368.028,187.896 370,186.5C 368.644,185.62 367.144,185.286 365.5,185.5C 363.667,192.831 361.334,199.998 358.5,207C 363.761,207.482 368.594,206.316 373,203.5C 373.725,205.158 374.892,205.658 376.5,205C 375.167,204.333 375.167,203.667 376.5,203C 378.663,202.755 380.33,201.755 381.5,200C 380.833,199.667 380.167,199.333 379.5,199C 381.833,198.333 384.167,198.333 386.5,199C 385.833,200.333 384.833,201.333 383.5,202C 384.167,202.333 384.833,202.667 385.5,203C 381.91,204.53 378.243,205.864 374.5,207C 377.821,207.97 379.487,210.137 379.5,213.5C 375.952,213.905 372.619,213.405 369.5,212C 372.167,211.333 372.167,210.667 369.5,210C 372.028,209.331 372.028,208.498 369.5,207.5C 365.915,207.613 362.249,208.28 358.5,209.5C 357.027,212.28 355.693,215.113 354.5,218C 358.817,217.137 362.817,217.804 366.5,220C 366.167,220.333 365.833,220.667 365.5,221C 367.929,220.665 368.762,219.165 368,216.5C 367.667,217.167 367.333,217.833 367,218.5C 364.592,216.581 362.259,215.248 360,214.5C 359.118,210.973 359.618,210.307 361.5,212.5C 361.669,211.603 362.002,210.603 362.5,209.5C 368.818,211.912 371.152,216.246 369.5,222.5C 371.492,222.672 373.158,222.005 374.5,220.5C 375.833,221.5 375.833,222.5 374.5,223.5C 369.448,227.599 364.781,228.266 360.5,225.5C 355.519,226.951 355.186,226.118 359.5,223C 357.527,222.505 355.527,222.338 353.5,222.5C 352.861,224.76 351.694,226.76 350,228.5C 349.282,229.451 348.449,229.617 347.5,229C 350.852,224.048 352.352,218.548 352,212.5C 354.848,211.567 355.014,210.067 352.5,208C 352.833,207.667 353.167,207.333 353.5,207C 351.341,204.484 349.008,204.151 346.5,206C 346.833,206.333 347.167,206.667 347.5,207C 346.101,207.595 344.768,207.428 343.5,206.5C 342.735,207.612 341.735,208.279 340.5,208.5C 340.804,207.85 341.137,207.183 341.5,206.5C 344.647,204.682 347.98,203.349 351.5,202.5C 353.169,204.509 354.836,206.509 356.5,208.5C 358.034,205.227 359.368,201.894 360.5,198.5C 361.091,195.06 362.091,191.727 363.5,188.5C 363.376,187.893 363.043,187.56 362.5,187.5C 364.539,186.089 365.539,184.089 365.5,181.5C 362.41,182.17 360.743,181.003 360.5,178C 360.796,176.112 361.296,174.278 362,172.5C 363.714,173.925 365.047,173.592 366,171.5C 367,174.167 368,176.833 369,179.5C 369.333,177.833 369.667,176.167 370,174.5C 370.089,177.849 371.256,178.349 373.5,176C 374.833,175 374.833,174 373.5,173C 374.167,172.333 374.833,171.667 375.5,171C 378.667,170.748 381.667,170.582 384.5,170.5C 384.833,170.667 385.167,170.833 385.5,171C 383.733,173.544 382.066,176.044 380.5,178.5 Z"/></g>
<g><path style="opacity:1" fill="#67483c" d="M 161.5,222.5 C 163.129,224.196 162.796,225.196 160.5,225.5C 154.091,219.61 146.757,215.11 138.5,212C 139.167,211.667 139.833,211.333 140.5,211C 139.289,210.107 139.289,209.274 140.5,208.5C 145.421,209.904 149.421,212.737 152.5,217C 156.53,217.339 159.53,219.173 161.5,222.5 Z"/></g>
<g><path style="opacity:1" fill="#826656" d="M 196.5,211.5 C 201.416,212.74 206.416,213.574 211.5,214C 206.04,215.129 201.04,214.296 196.5,211.5 Z"/></g>
<g><path style="opacity:1" fill="#927967" d="M 341.5,218.5 C 340.404,216.897 339.07,215.397 337.5,214C 340.302,213.976 341.636,215.476 341.5,218.5 Z"/></g>
<g><path style="opacity:1" fill="#aa947f" d="M 157.5,212.5 C 159.062,212.733 160.395,213.4 161.5,214.5C 162.5,214.833 163.167,215.5 163.5,216.5C 166.99,223.506 165.323,228.84 158.5,232.5C 156.781,231.978 155.448,230.978 154.5,229.5C 157.059,229.61 159.392,228.944 161.5,227.5C 161.137,226.817 160.804,226.15 160.5,225.5C 162.796,225.196 163.129,224.196 161.5,222.5C 162.613,221.054 162.78,219.387 162,217.5C 160.293,215.963 158.793,214.296 157.5,212.5 Z"/></g>
<g><path style="opacity:1" fill="#8b7160" d="M 179.5,211.5 C 177.618,218.142 173.285,220.308 166.5,218C 165.473,217.487 164.473,216.987 163.5,216.5C 163.167,215.5 162.5,214.833 161.5,214.5C 161.369,213.761 161.536,213.094 162,212.5C 163.351,214.019 164.851,215.352 166.5,216.5C 167.853,215.315 169.02,213.981 170,212.5C 173.332,214.443 173.166,215.61 169.5,216C 170,216.5 170.5,217 171,217.5C 173.95,215.613 176.784,213.613 179.5,211.5 Z"/></g>
<g><path style="opacity:1" fill="#a28b77" d="M 298.5,214.5 C 299.263,215.268 300.263,215.768 301.5,216C 298.978,217.341 296.311,218.174 293.5,218.5C 294.206,216.124 295.873,214.79 298.5,214.5 Z"/></g>
<g><path style="opacity:1" fill="#614135" d="M 334.5,222.5 C 333.5,223.167 332.5,223.833 331.5,224.5C 331.768,221.881 331.435,219.381 330.5,217C 331.167,216.667 331.833,216.333 332.5,216C 331.359,215.259 331.359,214.425 332.5,213.5C 333.365,212.417 334.365,212.251 335.5,213C 334.549,216.057 334.216,219.223 334.5,222.5 Z"/></g>
<g><path style="opacity:1" fill="#ece1c4" d="M 197.5,250.5 C 205.296,250.595 205.296,249.762 197.5,248C 191.86,241.215 193.527,236.548 202.5,234C 196.804,233.672 191.471,235.006 186.5,238C 181.666,241.145 181.333,244.645 185.5,248.5C 193.115,253.324 201.449,256.157 210.5,257C 234.976,260.744 259.309,260.077 283.5,255C 301.676,248.983 302.009,242.15 284.5,234.5C 286.748,231.672 288.748,228.672 290.5,225.5C 300.642,226.652 309.475,230.985 317,238.5C 320.853,245.991 319.02,251.824 311.5,256C 296.758,263.579 281.092,267.913 264.5,269C 243.309,270.495 222.309,269.162 201.5,265C 190.448,262.762 180.115,258.762 170.5,253C 162.111,246.747 161.444,239.914 168.5,232.5C 176.67,226.744 185.67,223.244 195.5,222C 204.958,235.725 217.625,245.058 233.5,250C 251.937,253.132 268.27,248.632 282.5,236.5C 284.733,237.742 286.899,239.076 289,240.5C 289.667,241.833 289.667,243.167 289,244.5C 284.792,246.906 280.292,248.74 275.5,250C 280.439,250.469 285.106,249.469 289.5,247C 290.113,244.853 290.779,242.686 291.5,240.5C 294.75,242.713 295.083,245.213 292.5,248C 280.477,253.436 267.81,256.102 254.5,256C 237.016,257.31 219.682,256.31 202.5,253C 200.347,252.901 198.681,252.067 197.5,250.5 Z"/></g>
<g><path style="opacity:1" fill="#937b69" d="M 292.5,220.5 C 294.216,220.629 295.883,220.962 297.5,221.5C 296.903,222.139 296.07,222.472 295,222.5C 293.624,222.316 292.791,221.649 292.5,220.5 Z"/></g>
<g><path style="opacity:1" fill="#7a5d4f" d="M 135.5,217.5 C 137.34,221.505 140.34,224.338 144.5,226C 143.944,226.383 143.611,226.883 143.5,227.5C 138.963,225.633 136.296,222.299 135.5,217.5 Z"/></g>
<g><path style="opacity:1" fill="#c0ad96" d="M 326.5,214.5 C 327.043,214.56 327.376,214.893 327.5,215.5C 326.469,216.7 325.635,218.034 325,219.5C 324.667,224.167 324.333,228.833 324,233.5C 321.517,226.668 322.351,220.335 326.5,214.5 Z"/></g>
<g><path style="opacity:1" fill="#8e7564" d="M 341.5,218.5 C 343.439,222.531 343.939,226.864 343,231.5C 342.392,233.066 341.558,234.4 340.5,235.5C 341.161,232.512 341.828,229.512 342.5,226.5C 341.905,223.86 341.572,221.193 341.5,218.5 Z"/></g>
<g><path style="opacity:1" fill="#af9a85" d="M 153.5,229.5 C 152.434,230.692 151.601,230.359 151,228.5C 150.275,229.059 149.442,229.392 148.5,229.5C 146.823,228.813 145.156,228.146 143.5,227.5C 143.611,226.883 143.944,226.383 144.5,226C 140.34,224.338 137.34,221.505 135.5,217.5C 134.378,215.712 134.211,213.712 135,211.5C 138.659,218.493 143.993,223.826 151,227.5C 152.813,226.391 153.646,227.058 153.5,229.5 Z"/></g>
<g><path style="opacity:1" fill="#7f6354" d="M 334.5,222.5 C 334.823,226.226 334.489,229.893 333.5,233.5C 329.855,230.948 329.188,227.948 331.5,224.5C 332.5,223.833 333.5,223.167 334.5,222.5 Z"/></g>
<g><path style="opacity:1" fill="#58362c" d="M 185.5,226.5 C 187.527,226.338 189.527,226.505 191.5,227C 184.773,229.197 178.439,232.197 172.5,236C 170.203,238.463 168.537,241.297 167.5,244.5C 167.977,245.478 168.643,246.311 169.5,247C 168.5,247.667 167.5,247.667 166.5,247C 164.912,242.707 165.746,238.874 169,235.5C 174.199,231.833 179.699,228.833 185.5,226.5 Z"/></g>
<g><path style="opacity:1" fill="#a18a76" d="M 203.5,225.5 C 208.286,227.155 213.286,227.988 218.5,228C 214.111,229.395 209.777,229.895 205.5,229.5C 203.896,228.713 203.229,227.38 203.5,225.5 Z"/></g>
<g><path style="opacity:1" fill="#735547" d="M 192.5,228.5 C 194.527,228.338 196.527,228.505 198.5,229C 195.515,229.868 192.515,230.201 189.5,230C 190.737,229.768 191.737,229.268 192.5,228.5 Z"/></g>
<g><path style="opacity:1" fill="#715446" d="M 143.5,227.5 C 145.156,228.146 146.823,228.813 148.5,229.5C 149.442,229.392 150.275,229.059 151,228.5C 151.601,230.359 152.434,230.692 153.5,229.5C 153.833,229.5 154.167,229.5 154.5,229.5C 155.448,230.978 156.781,231.978 158.5,232.5C 152.529,233.33 147.529,231.663 143.5,227.5 Z"/></g>
<g><path style="opacity:1" fill="#9c8471" d="M 330.5,238.5 C 331.122,237.373 331.955,236.373 333,235.5C 333.7,237.032 334.866,238.032 336.5,238.5C 337.852,237.476 339.185,236.476 340.5,235.5C 340.369,236.239 340.536,236.906 341,237.5C 342.533,235.154 344.366,234.154 346.5,234.5C 344.476,236.358 342.309,238.025 340,239.5C 339.506,241.134 339.34,242.801 339.5,244.5C 339.5,245.833 340.167,246.5 341.5,246.5C 340.416,249.277 341.583,250.61 345,250.5C 353.501,247.793 359.668,242.46 363.5,234.5C 362.184,233.193 361.184,231.693 360.5,230C 358.521,229.316 356.854,229.816 355.5,231.5C 353.657,231.245 351.657,231.078 349.5,231C 363.047,225.88 367.213,230.047 362,243.5C 356.743,251.214 349.576,254.047 340.5,252C 337.467,248.611 336.801,244.778 338.5,240.5C 335.786,240.76 333.119,240.093 330.5,238.5 Z"/></g>
<g><path style="opacity:1" fill="#9c8471" d="M 210.5,233.5 C 212.927,233.523 215.26,234.023 217.5,235C 215.276,235.04 213.276,235.206 211.5,235.5C 210.662,235.158 210.328,234.492 210.5,233.5 Z"/></g>
<g><path style="opacity:1" fill="#745748" d="M 271.5,231.5 C 272.239,231.369 272.906,231.536 273.5,232C 271.421,234.377 269.088,235.543 266.5,235.5C 268.419,234.388 270.086,233.054 271.5,231.5 Z"/></g>
<g><path style="opacity:1" fill="#5f3d32" d="M 188.5,232.5 C 189.873,232.343 191.207,232.51 192.5,233C 187.233,234.193 182.733,236.693 179,240.5C 176.709,243.835 177.209,246.668 180.5,249C 177.173,249.513 175.507,248.013 175.5,244.5C 175.577,242.701 176.077,241.034 177,239.5C 180.263,236.037 184.097,233.704 188.5,232.5 Z"/></g>
<g><path style="opacity:1" fill="#806555" d="M 330.5,238.5 C 330.918,239.222 331.584,239.722 332.5,240C 328.365,241.033 326.198,239.533 326,235.5C 327.615,236.386 329.115,237.386 330.5,238.5 Z"/></g>
<g><path style="opacity:1" fill="#59372c" d="M 294.5,231.5 C 301.25,230.954 306.75,233.62 311,239.5C 313.982,252.194 308.815,257.694 295.5,256C 299.581,254.529 303.581,252.862 307.5,251C 311.676,245.51 311.009,240.51 305.5,236C 302.271,233.384 298.604,231.884 294.5,231.5 Z"/></g>
<g><path style="opacity:1" fill="#705245" d="M 341.5,246.5 C 340.167,246.5 339.5,245.833 339.5,244.5C 344.389,241.451 349.056,237.951 353.5,234C 355.436,233.187 357.436,232.687 359.5,232.5C 359.67,233.822 359.337,234.989 358.5,236C 352.439,238.901 346.772,242.401 341.5,246.5 Z"/></g>
<g><path style="opacity:1" fill="#9b8371" d="M 197.5,241.5 C 199.308,242.907 201.308,244.074 203.5,245C 200.399,245.619 198.399,244.452 197.5,241.5 Z"/></g>
<g><path style="opacity:1" fill="#c8b89f" d="M 197.5,250.5 C 193.16,250.614 190.993,248.614 191,244.5C 193.063,246.734 195.229,248.734 197.5,250.5 Z"/></g>
<g><path style="opacity:1" fill="#9a8370" d="M 276.5,245.5 C 279.598,245.413 279.932,245.913 277.5,247C 275.833,247.667 274.167,247.667 272.5,247C 274.058,246.79 275.391,246.29 276.5,245.5 Z"/></g>
<g><path style="opacity:1" fill="#a08a76" d="M 253.5,251.5 C 256.85,251.335 260.183,251.502 263.5,252C 260.812,252.392 258.145,252.892 255.5,253.5C 254.287,253.253 253.62,252.586 253.5,251.5 Z"/></g>
<g><path style="opacity:1" fill="#a6917c" d="M 189.5,257.5 C 192.421,258.481 195.421,259.315 198.5,260C 196.134,260.562 193.801,260.396 191.5,259.5C 190.287,259.253 189.62,258.586 189.5,257.5 Z"/></g>
<g><path style="opacity:1" fill="#947b69" d="M 284.5,259.5 C 285.552,259.351 286.552,259.517 287.5,260C 285.382,261.345 283.382,261.845 281.5,261.5C 282.602,260.824 283.602,260.158 284.5,259.5 Z"/></g>
<g><path style="opacity:1" fill="#a7917d" d="M 205.5,263.5 C 205.917,262.876 206.584,262.543 207.5,262.5C 213.086,263.859 218.753,264.692 224.5,265C 218.071,265.673 211.738,265.173 205.5,263.5 Z"/></g>
<g><path style="opacity:1" fill="#baa791" d="M 234.5,265.5 C 239.536,265.588 244.536,266.088 249.5,267C 247,267.167 244.5,267.333 242,267.5C 239.071,267.475 236.571,266.809 234.5,265.5 Z"/></g>
<g><path style="opacity:1" fill="#846959" d="M 106.5,293.5 C 109.797,290.237 113.797,289.071 118.5,290C 114.329,290.669 110.329,291.836 106.5,293.5 Z"/></g>
<g><path style="opacity:1" fill="#806454" d="M 298.5,297.5 C 297.791,298.404 296.791,298.737 295.5,298.5C 294.622,295.296 292.455,293.63 289,293.5C 285.125,294.522 281.625,296.189 278.5,298.5C 282.2,293.324 287.2,291.491 293.5,293C 295.083,294.758 296.75,296.258 298.5,297.5 Z"/></g>
<g><path style="opacity:1" fill="#846959" d="M 106.5,293.5 C 105.167,295.5 103.5,297.167 101.5,298.5C 102.167,295.833 103.833,294.167 106.5,293.5 Z"/></g>
<g><path style="opacity:1" fill="#806455" d="M 140.5,299.5 C 135.934,298.193 131.267,297.526 126.5,297.5C 126.492,302.581 124.825,306.915 121.5,310.5C 123.316,306.716 124.316,302.716 124.5,298.5C 119.815,299.346 115.481,301.013 111.5,303.5C 111.953,302.542 112.619,301.708 113.5,301C 117.052,299.205 120.718,297.705 124.5,296.5C 123.228,293.344 123.561,293.011 125.5,295.5C 130.866,295.966 135.866,297.299 140.5,299.5 Z"/></g>
<g><path style="opacity:1" fill="#533127" d="M 324.5,300.5 C 326.167,301.167 327.833,301.833 329.5,302.5C 326.193,303.051 322.86,303.384 319.5,303.5C 317.958,302.699 316.292,302.366 314.5,302.5C 309.256,301.185 303.923,300.518 298.5,300.5C 296.901,300.232 295.568,300.566 294.5,301.5C 289.702,302.964 285.702,305.631 282.5,309.5C 285.382,304.211 289.715,300.544 295.5,298.5C 296.791,298.737 297.791,298.404 298.5,297.5C 302.413,296.404 306.413,296.238 310.5,297C 315.091,298.462 319.757,299.628 324.5,300.5 Z"/></g>
<g><path style="opacity:1" fill="#f2e7c9" d="M 121.5,310.5 C 119.5,311.833 117.833,313.5 116.5,315.5C 107.327,318.655 104.66,315.655 108.5,306.5C 109.833,305.833 110.833,304.833 111.5,303.5C 115.481,301.013 119.815,299.346 124.5,298.5C 124.316,302.716 123.316,306.716 121.5,310.5 Z"/></g>
<g><path style="opacity:1" fill="#8a6f5e" d="M 143.5,299.5 C 145.119,297.762 147.119,297.262 149.5,298C 147.564,298.813 145.564,299.313 143.5,299.5 Z"/></g>
<g><path style="opacity:1" fill="#785a4c" d="M 101.5,298.5 C 100.68,300.812 99.8471,303.146 99,305.5C 98.162,302.519 98.9953,300.186 101.5,298.5 Z"/></g>
<g><path style="opacity:1" fill="#967d6a" d="M 278.5,298.5 C 278.262,300.404 277.262,301.738 275.5,302.5C 275.738,300.596 276.738,299.262 278.5,298.5 Z"/></g>
<g><path style="opacity:1" fill="#f2e8ca" d="M 294.5,301.5 C 295.693,301.97 296.36,302.97 296.5,304.5C 296.032,307.233 295.365,309.9 294.5,312.5C 292.738,313.262 291.738,314.596 291.5,316.5C 289.973,316.427 288.973,317.094 288.5,318.5C 286.208,318.756 284.041,318.423 282,317.5C 281.57,314.808 281.737,312.141 282.5,309.5C 285.702,305.631 289.702,302.964 294.5,301.5 Z"/></g>
<g><path style="opacity:1" fill="#8b705f" d="M 294.5,301.5 C 295.568,300.566 296.901,300.232 298.5,300.5C 298.453,303.568 297.953,306.568 297,309.5C 296.623,310.942 295.79,311.942 294.5,312.5C 295.365,309.9 296.032,307.233 296.5,304.5C 296.36,302.97 295.693,301.97 294.5,301.5 Z"/></g>
<g><path style="opacity:1" fill="#917867" d="M 324.5,300.5 C 326.833,300.5 329.167,300.5 331.5,300.5C 331.737,301.791 331.404,302.791 330.5,303.5C 330.5,302.833 330.167,302.5 329.5,302.5C 327.833,301.833 326.167,301.167 324.5,300.5 Z"/></g>
<g><path style="opacity:1" fill="#522f25" d="M 307.5,351.5 C 302.406,353.094 300.572,351.094 302,345.5C 310.768,330.952 320.268,316.952 330.5,303.5C 331.404,302.791 331.737,301.791 331.5,300.5C 333.426,299.758 335.259,298.758 337,297.5C 335.752,298.969 335.419,300.635 336,302.5C 326.667,315.833 317.333,329.167 308,342.5C 306.047,345.255 304.88,348.255 304.5,351.5C 305.5,351.5 306.5,351.5 307.5,351.5 Z"/></g>
<g><path style="opacity:1" fill="#76594b" d="M 275.5,302.5 C 274.24,309.411 273.74,309.745 274,303.5C 274.383,302.944 274.883,302.611 275.5,302.5 Z"/></g>
<g><path style="opacity:1" fill="#795d4e" d="M 111.5,303.5 C 110.833,304.833 109.833,305.833 108.5,306.5C 108.5,304.5 109.5,303.5 111.5,303.5 Z"/></g>
<g><path style="opacity:1" fill="#512e24" d="M 140.5,299.5 C 141.5,299.5 142.5,299.5 143.5,299.5C 150.7,311.54 147.367,319.207 133.5,322.5C 132.833,322.5 132.5,322.167 132.5,321.5C 142.148,317.555 145.148,310.888 141.5,301.5C 134.066,306.267 128.399,312.6 124.5,320.5C 126.608,321.944 128.941,322.61 131.5,322.5C 128.5,323.167 125.5,323.833 122.5,324.5C 117.897,333.287 111.897,341.12 104.5,348C 97.5474,352.985 89.8808,354.652 81.5,353C 80.5842,352.722 79.9175,352.222 79.5,351.5C 89.7941,354.346 97.9607,351.346 104,342.5C 110.079,329.506 118.245,318.006 128.5,308C 132.68,305.304 136.68,302.47 140.5,299.5 Z"/></g>
<g><path style="opacity:1" fill="#f0e5c7" d="M 132.5,321.5 C 131.833,321.5 131.5,321.833 131.5,322.5C 128.941,322.61 126.608,321.944 124.5,320.5C 128.399,312.6 134.066,306.267 141.5,301.5C 145.148,310.888 142.148,317.555 132.5,321.5 Z"/></g>
<g><path style="opacity:1" fill="#846959" d="M 314.5,302.5 C 316.292,302.366 317.958,302.699 319.5,303.5C 317.192,305.471 314.858,307.471 312.5,309.5C 312.5,309.167 312.5,308.833 312.5,308.5C 313.673,306.496 315.34,304.996 317.5,304C 316.263,303.768 315.263,303.268 314.5,302.5 Z"/></g>
<g><path style="opacity:1" fill="#4f2c23" d="M 312.5,308.5 C 312.5,308.833 312.5,309.167 312.5,309.5C 308.066,316.031 304.4,323.031 301.5,330.5C 303.423,331.308 305.423,331.808 307.5,332C 305.1,332.186 302.766,332.686 300.5,333.5C 294.608,345.055 285.274,352.055 272.5,354.5C 272.5,354.167 272.5,353.833 272.5,353.5C 277.458,352.604 281.624,350.271 285,346.5C 288.229,342.267 291.062,337.767 293.5,333C 292.167,332.667 290.833,332.333 289.5,332C 291.256,331.798 292.922,331.298 294.5,330.5C 297.082,325.667 299.915,321 303,316.5C 305.766,313.223 308.933,310.557 312.5,308.5 Z"/></g>
<g><path style="opacity:1" fill="#8c7161" d="M 121.5,310.5 C 120.833,313.167 119.167,314.833 116.5,315.5C 117.833,313.5 119.5,311.833 121.5,310.5 Z"/></g>
<g><path style="opacity:1" fill="#826656" d="M 108.5,306.5 C 104.66,315.655 107.327,318.655 116.5,315.5C 113.526,318.958 110.192,319.292 106.5,316.5C 104.815,312.589 105.482,309.255 108.5,306.5 Z"/></g>
<g><path style="opacity:1" fill="#826656" d="M 294.5,312.5 C 294.262,314.404 293.262,315.738 291.5,316.5C 291.738,314.596 292.738,313.262 294.5,312.5 Z"/></g>
<g><path style="opacity:1" fill="#533127" d="M 218.5,324.5 C 217.599,325.29 216.932,326.29 216.5,327.5C 210.563,334.29 205.563,341.79 201.5,350C 201.836,351.03 202.503,351.53 203.5,351.5C 203.5,351.833 203.5,352.167 203.5,352.5C 199.336,352.228 197.503,349.894 198,345.5C 196.385,347.905 195.719,347.905 196,345.5C 201.211,339.958 206.044,334.125 210.5,328C 209.692,327.692 209.025,327.192 208.5,326.5C 213.413,324.589 217.079,321.256 219.5,316.5C 221.074,315.369 222.741,315.202 224.5,316C 222.28,318.713 220.28,321.546 218.5,324.5 Z"/></g>
<g><path style="opacity:1" fill="#886d5d" d="M 291.5,316.5 C 291.027,317.906 290.027,318.573 288.5,318.5C 288.973,317.094 289.973,316.427 291.5,316.5 Z"/></g>
<g><path style="opacity:1" fill="#836858" d="M 106.5,321.5 C 100.647,316.997 94.3138,316.331 87.5,319.5C 87.5,318.833 87.1667,318.5 86.5,318.5C 92.3065,314.799 98.3065,314.632 104.5,318C 105.823,318.816 106.489,319.983 106.5,321.5 Z"/></g>
<g><path style="opacity:1" fill="#806455" d="M 282.5,309.5 C 281.737,312.141 281.57,314.808 282,317.5C 284.041,318.423 286.208,318.756 288.5,318.5C 286.039,321.067 283.539,321.067 281,318.5C 280.073,315.137 280.573,312.137 282.5,309.5 Z"/></g>
<g><path style="opacity:1" fill="#543228" d="M 86.5,318.5 C 87.1667,318.5 87.5,318.833 87.5,319.5C 77.7063,325.422 73.5397,334.088 75,345.5C 76.332,347.66 77.832,349.66 79.5,351.5C 69.4284,344.859 67.9284,336.526 75,326.5C 78.1067,322.704 81.94,320.037 86.5,318.5 Z"/></g>
<g><path style="opacity:1" fill="#ab9681" d="M 132.5,321.5 C 132.5,322.167 132.833,322.5 133.5,322.5C 133.5,323.167 133.5,323.833 133.5,324.5C 133.167,324.5 132.833,324.5 132.5,324.5C 129.167,324.5 125.833,324.5 122.5,324.5C 125.5,323.833 128.5,323.167 131.5,322.5C 131.5,321.833 131.833,321.5 132.5,321.5 Z"/></g>
<g><path style="opacity:1" fill="#58362b" d="M 279.5,320.5 C 279.5,321.167 279.167,321.5 278.5,321.5C 261.54,321.961 254.04,330.628 256,347.5C 257.851,350.846 260.684,352.846 264.5,353.5C 264.5,354.167 264.167,354.5 263.5,354.5C 252.887,351.278 249.054,344.278 252,333.5C 258.476,323.68 267.643,319.347 279.5,320.5 Z"/></g>
<g><path style="opacity:1" fill="#806353" d="M 106.5,321.5 C 107.665,322.496 108.332,323.829 108.5,325.5C 108.378,328.126 107.378,330.126 105.5,331.5C 106.324,328.236 106.658,324.902 106.5,321.5 Z"/></g>
<g><path style="opacity:1" fill="#502d24" d="M 132.5,324.5 C 132.833,324.5 133.167,324.5 133.5,324.5C 141.388,330.293 142.554,337.293 137,345.5C 131.251,351.083 124.417,353.25 116.5,352C 115.944,351.617 115.611,351.117 115.5,350.5C 121.773,352.455 126.94,350.788 131,345.5C 134.824,340.033 136.158,334.033 135,327.5C 133.955,326.627 133.122,325.627 132.5,324.5 Z"/></g>
<g><path style="opacity:1" fill="#553228" d="M 157.5,335.5 C 156.833,335.5 156.5,335.167 156.5,334.5C 157.725,330.612 160.059,327.612 163.5,325.5C 164.583,326.365 164.749,327.365 164,328.5C 161.628,330.703 159.461,333.037 157.5,335.5 Z"/></g>
<g><path style="opacity:1" fill="#9c8471" d="M 218.5,324.5 C 219.718,325.161 221.051,325.828 222.5,326.5C 220.604,327.466 218.604,327.799 216.5,327.5C 216.932,326.29 217.599,325.29 218.5,324.5 Z"/></g>
<g><path style="opacity:1" fill="#4e2b21" d="M 215.5,348.5 C 214.115,349.947 214.448,350.947 216.5,351.5C 212.814,352.491 211.147,350.824 211.5,346.5C 212.833,345.833 212.833,345.167 211.5,344.5C 215.956,338.873 220.623,333.373 225.5,328C 226.944,327.219 228.277,327.386 229.5,328.5C 224.419,334.908 219.752,341.575 215.5,348.5 Z"/></g>
<g><path style="opacity:1" fill="#512f25" d="M 194.5,383.5 C 193.833,383.5 193.5,383.167 193.5,382.5C 196.09,381.872 198.423,380.705 200.5,379C 209.105,369.283 216.105,359.616 221.5,350C 220.906,349.536 220.239,349.369 219.5,349.5C 224.809,342.519 230.143,335.519 235.5,328.5C 237.167,327.167 238.833,327.167 240.5,328.5C 234.586,336.66 228.919,344.993 223.5,353.5C 225.078,354.298 226.744,354.798 228.5,355C 226.236,355.236 224.069,355.736 222,356.5C 217.306,366.522 210.472,374.688 201.5,381C 199.35,382.411 197.016,383.245 194.5,383.5 Z"/></g>
<g><path style="opacity:1" fill="#4d2a20" d="M 332.5,351.5 C 330.833,352.833 329.167,352.833 327.5,351.5C 327.784,349.585 327.451,347.919 326.5,346.5C 330.167,341.167 333.833,335.833 337.5,330.5C 338.5,330.167 339.167,329.5 339.5,328.5C 341.166,327.334 342.833,327.334 344.5,328.5C 339.454,335.427 334.787,342.594 330.5,350C 330.836,351.03 331.503,351.53 332.5,351.5 Z"/></g>
<g><path style="opacity:1" fill="#4e2b22" d="M 384.5,351.5 C 382.847,352.799 381.347,352.466 380,350.5C 379.297,348.071 379.463,345.738 380.5,343.5C 381.674,342.486 382.34,341.153 382.5,339.5C 385.968,335.859 389.302,332.026 392.5,328C 394.167,327.333 395.833,327.333 397.5,328C 391.752,334.83 386.752,342.163 382.5,350C 382.836,351.03 383.503,351.53 384.5,351.5 Z"/></g>
<g><path style="opacity:1" fill="#4d2a21" d="M 395.5,351.5 C 395.5,351.833 395.5,352.167 395.5,352.5C 394.041,352.567 392.708,352.234 391.5,351.5C 391.865,348.921 391.865,346.588 391.5,344.5C 395.282,338.878 399.282,333.378 403.5,328C 404.944,327.219 406.277,327.386 407.5,328.5C 402.621,335.542 397.955,342.709 393.5,350C 393.836,351.03 394.503,351.53 395.5,351.5 Z"/></g>
<g><path style="opacity:1" fill="#522f25" d="M 194.5,328.5 C 194.5,328.167 194.5,327.833 194.5,327.5C 199.068,327.083 200.568,329.083 199,333.5C 195.362,339.303 191.529,344.97 187.5,350.5C 188,350.833 188.5,351.167 189,351.5C 190.393,350.385 191.893,349.885 193.5,350C 189.678,353.667 186.678,353.167 184.5,348.5C 187.375,342.785 190.875,337.452 195,332.5C 195.5,331.5 196,330.5 196.5,329.5C 196.043,328.702 195.376,328.369 194.5,328.5 Z"/></g>
<g><path style="opacity:1" fill="#4e2b22" d="M 333.5,327.5 C 334.492,327.328 335.158,327.662 335.5,328.5C 327.286,333.386 321.62,340.386 318.5,349.5C 318.747,350.713 319.414,351.38 320.5,351.5C 320.5,351.833 320.5,352.167 320.5,352.5C 317.633,352.631 315.967,351.297 315.5,348.5C 315.768,346.901 315.434,345.568 314.5,344.5C 318.64,336.359 324.973,330.692 333.5,327.5 Z"/></g>
<g><path style="opacity:1" fill="#ebe0c3" d="M 335.5,328.5 C 336.833,328.5 337.5,329.167 337.5,330.5C 333.833,335.833 330.167,341.167 326.5,346.5C 324.475,348.196 322.475,349.863 320.5,351.5C 319.414,351.38 318.747,350.713 318.5,349.5C 321.62,340.386 327.286,333.386 335.5,328.5 Z"/></g>
<g><path style="opacity:1" fill="#8b7260" d="M 333.5,327.5 C 335.638,326.192 337.638,326.525 339.5,328.5C 339.167,329.5 338.5,330.167 337.5,330.5C 337.5,329.167 336.833,328.5 335.5,328.5C 335.158,327.662 334.492,327.328 333.5,327.5 Z"/></g>
<g><path style="opacity:1" fill="#553329" d="M 346.5,350.5 C 345.341,352.377 343.674,352.877 341.5,352C 340.736,349.931 340.236,347.764 340,345.5C 339.346,346.696 338.846,346.696 338.5,345.5C 343.357,339.811 348.023,333.978 352.5,328C 354.167,327.333 355.833,327.333 357.5,328C 351.912,335.092 346.912,342.592 342.5,350.5C 343.7,351.292 345.033,351.292 346.5,350.5 Z"/></g>
<g><path style="opacity:1" fill="#4f2c23" d="M 377.5,327.5 C 378.167,327.5 378.5,327.833 378.5,328.5C 370.936,334.634 365.602,342.3 362.5,351.5C 363.833,351.5 365.167,351.5 366.5,351.5C 360.155,352.964 357.988,350.297 360,343.5C 364.123,336.207 369.956,330.873 377.5,327.5 Z"/></g>
<g><path style="opacity:1" fill="#ebe0c3" d="M 378.5,328.5 C 379.649,328.791 380.316,329.624 380.5,331C 380.057,332.825 379.723,334.658 379.5,336.5C 375.333,336.846 373.5,339.18 374,343.5C 372.668,345.66 371.168,347.66 369.5,349.5C 367.973,349.427 366.973,350.094 366.5,351.5C 365.167,351.5 363.833,351.5 362.5,351.5C 365.602,342.3 370.936,334.634 378.5,328.5 Z"/></g>
<g><path style="opacity:1" fill="#4e2b22" d="M 153.5,336.5 C 151.519,337.105 151.185,338.105 152.5,339.5C 149.387,343.549 146.387,347.716 143.5,352C 141.5,352.667 139.5,352.667 137.5,352C 142.833,344.667 148.167,337.333 153.5,330C 154.6,329.568 155.267,330.068 155.5,331.5C 154.813,333.177 154.146,334.844 153.5,336.5 Z"/></g>
<g><path style="opacity:1" fill="#553329" d="M 159.5,339.5 C 159.833,338.833 160.167,338.167 160.5,337.5C 165.214,332.721 170.714,329.055 177,326.5C 180.072,327.447 181.072,329.447 180,332.5C 175.749,336.876 170.582,339.543 164.5,340.5C 163.03,343.273 161.697,346.106 160.5,349C 160.645,349.772 160.978,350.439 161.5,351C 162.833,351.333 164.167,351.667 165.5,352C 161.834,353.271 159.334,352.104 158,348.5C 157.207,345.259 157.707,342.259 159.5,339.5 Z"/></g>
<g><path style="opacity:1" fill="#e7dbbe" d="M 174.5,328.5 C 175.5,328.5 176.5,328.5 177.5,328.5C 175.913,333.42 172.58,336.754 167.5,338.5C 168.253,334.408 170.587,331.075 174.5,328.5 Z"/></g>
<g><path style="opacity:1" fill="#533026" d="M 187.5,333.5 C 186.596,334.209 186.263,335.209 186.5,336.5C 182.966,341.725 179.299,346.892 175.5,352C 173.741,352.798 172.074,352.631 170.5,351.5C 171.653,350.313 171.653,349.313 170.5,348.5C 175.999,342.165 181.332,335.665 186.5,329C 187.483,328.409 188.15,328.743 188.5,330C 188.011,331.138 187.678,332.305 187.5,333.5 Z"/></g>
<g><path style="opacity:1" fill="#512e24" d="M 417.5,337.5 C 417.167,337.5 416.833,337.5 416.5,337.5C 416.565,337.062 416.399,336.728 416,336.5C 411.454,341.377 407.287,346.544 403.5,352C 402.667,352.167 401.833,352.333 401,352.5C 399.624,352.316 398.791,351.649 398.5,350.5C 400.5,349.024 402.167,347.191 403.5,345C 403.272,344.601 402.938,344.435 402.5,344.5C 406.836,339.158 411.169,333.825 415.5,328.5C 415.833,329 416.167,329.5 416.5,330C 415.496,331.798 414.996,333.632 415,335.5C 417.139,332.061 419.639,328.894 422.5,326C 423.483,325.409 424.15,325.743 424.5,327C 422.72,329.784 420.553,332.284 418,334.5C 417.517,335.448 417.351,336.448 417.5,337.5 Z"/></g>
<g><path style="opacity:1" fill="#8c7261" d="M 194.5,327.5 C 194.5,327.833 194.5,328.167 194.5,328.5C 192.167,331.5 189.5,334.167 186.5,336.5C 186.263,335.209 186.596,334.209 187.5,333.5C 189.833,331.5 192.167,329.5 194.5,327.5 Z"/></g>
<g><path style="opacity:1" fill="#8a705f" d="M 279.5,320.5 C 287.213,323.895 289.213,329.228 285.5,336.5C 287.34,329.272 285.007,324.272 278.5,321.5C 279.167,321.5 279.5,321.167 279.5,320.5 Z"/></g>
<g><path style="opacity:1" fill="#522f26" d="M 425.5,333.5 C 427.35,329.154 429.85,325.154 433,321.5C 433.062,324.161 432.062,326.495 430,328.5C 429.664,332.001 429.831,335.501 430.5,339C 429.795,348.375 424.795,352.709 415.5,352C 414.424,350.274 414.257,348.441 415,346.5C 416.518,352.824 419.185,353.158 423,347.5C 425.784,342.825 427.117,337.825 427,332.5C 426.617,333.056 426.117,333.389 425.5,333.5 Z"/></g>
<g><path style="opacity:1" fill="#806454" d="M 105.5,331.5 C 104.471,335.015 102.138,336.515 98.5,336C 101.202,334.988 103.535,333.488 105.5,331.5 Z"/></g>
<g><path style="opacity:1" fill="#68483b" d="M 350.5,347.5 C 354.86,342.468 358.86,337.135 362.5,331.5C 360.816,330.146 360.316,328.479 361,326.5C 363.395,325.202 364.562,326.035 364.5,329C 364.091,331.321 363.257,333.487 362,335.5C 359.667,338.5 357.333,341.5 355,344.5C 353.871,346.141 352.371,347.141 350.5,347.5 Z"/></g>
<g><path style="opacity:1" fill="#66463a" d="M 377.5,327.5 C 380.456,326.239 382.123,327.405 382.5,331C 381.63,334.739 379.964,338.072 377.5,341C 379.495,341.613 381.162,341.113 382.5,339.5C 382.34,341.153 381.674,342.486 380.5,343.5C 379.399,342.402 378.066,342.235 376.5,343C 374.688,345.86 372.354,348.027 369.5,349.5C 371.168,347.66 372.668,345.66 374,343.5C 373.5,339.18 375.333,336.846 379.5,336.5C 379.723,334.658 380.057,332.825 380.5,331C 380.316,329.624 379.649,328.791 378.5,328.5C 378.5,327.833 378.167,327.5 377.5,327.5 Z"/></g>
<g><path style="opacity:1" fill="#856a5a" d="M 156.5,334.5 C 156.5,335.167 156.833,335.5 157.5,335.5C 157.821,337.048 158.821,337.715 160.5,337.5C 160.167,338.167 159.833,338.833 159.5,339.5C 157.589,339.426 156.422,338.426 156,336.5C 154.961,337.71 153.794,338.71 152.5,339.5C 151.185,338.105 151.519,337.105 153.5,336.5C 154.5,335.833 155.5,335.167 156.5,334.5 Z"/></g>
<g><path style="opacity:1" fill="#957c6a" d="M 425.5,333.5 C 424.307,337.533 421.64,339.366 417.5,339C 416.944,338.617 416.611,338.117 416.5,337.5C 416.833,337.5 417.167,337.5 417.5,337.5C 418.873,337.657 420.207,337.49 421.5,337C 422.705,335.624 424.038,334.458 425.5,333.5 Z"/></g>
<g><path style="opacity:1" fill="#745748" d="M 285.5,336.5 C 284.852,339.323 283.186,340.823 280.5,341C 282.037,339.293 283.704,337.793 285.5,336.5 Z"/></g>
<g><path style="opacity:1" fill="#745647" d="M 115.5,350.5 C 113.116,349.575 112.116,347.742 112.5,345C 113.991,337.167 118.657,333.5 126.5,334C 119.712,334.79 115.378,338.456 113.5,345C 113.758,347.009 114.425,348.843 115.5,350.5 Z"/></g>
<g><path style="opacity:1" fill="#4e2b22" d="M 417.5,343.5 C 418.833,343.5 420.167,343.5 421.5,343.5C 422.244,346.95 420.91,348.616 417.5,348.5C 416.929,346.64 416.929,344.973 417.5,343.5 Z"/></g>
<g><path style="opacity:1" fill="#8d7362" d="M 391.5,344.5 C 391.865,346.588 391.865,348.921 391.5,351.5C 390.71,350.391 390.21,349.058 390,347.5C 389.292,348.381 388.458,349.047 387.5,349.5C 388.08,347.251 389.413,345.585 391.5,344.5 Z"/></g>
<g><path style="opacity:1" fill="#917766" d="M 211.5,344.5 C 212.833,345.167 212.833,345.833 211.5,346.5C 209.116,348.885 206.45,350.885 203.5,352.5C 203.5,352.167 203.5,351.833 203.5,351.5C 206.141,349.196 208.808,346.862 211.5,344.5 Z"/></g>
<g><path style="opacity:1" fill="#4f2c23" d="M 438.5,347.5 C 440.167,347.5 441.833,347.5 443.5,347.5C 443.938,351.908 441.938,353.575 437.5,352.5C 437.366,350.708 437.699,349.042 438.5,347.5 Z"/></g>
<g><path style="opacity:1" fill="#927967" d="M 314.5,344.5 C 315.434,345.568 315.768,346.901 315.5,348.5C 314.778,348.082 314.278,347.416 314,346.5C 312.223,348.79 310.056,350.457 307.5,351.5C 309.5,348.833 311.833,346.5 314.5,344.5 Z"/></g>
<g><path style="opacity:1" fill="#77594c" d="M 350.5,347.5 C 349.738,349.262 348.404,350.262 346.5,350.5C 347.262,348.738 348.596,347.738 350.5,347.5 Z"/></g>
<g><path style="opacity:1" fill="#785b4c" d="M 170.5,348.5 C 169.998,350.085 168.998,350.585 167.5,350C 168.244,348.961 169.244,348.461 170.5,348.5 Z"/></g>
<g><path style="opacity:1" fill="#937a68" d="M 326.5,346.5 C 327.451,347.919 327.784,349.585 327.5,351.5C 326.732,350.737 326.232,349.737 326,348.5C 324.568,350.439 322.735,351.772 320.5,352.5C 320.5,352.167 320.5,351.833 320.5,351.5C 322.475,349.863 324.475,348.196 326.5,346.5 Z"/></g>
<g><path style="opacity:1" fill="#8d7362" d="M 215.5,348.5 C 215.369,349.376 215.702,350.043 216.5,350.5C 217.417,349.873 218.417,349.539 219.5,349.5C 219.027,350.906 218.027,351.573 216.5,351.5C 214.448,350.947 214.115,349.947 215.5,348.5 Z"/></g>
<g><path style="opacity:1" fill="#856b5b" d="M 332.5,351.5 C 333.002,349.915 334.002,349.415 335.5,350C 334.756,351.039 333.756,351.539 332.5,351.5 Z"/></g>
<g><path style="opacity:1" fill="#75584a" d="M 369.5,349.5 C 369.027,350.906 368.027,351.573 366.5,351.5C 366.973,350.094 367.973,349.427 369.5,349.5 Z"/></g>
<g><path style="opacity:1" fill="#876c5b" d="M 387.5,349.5 C 387.027,350.906 386.027,351.573 384.5,351.5C 384.973,350.094 385.973,349.427 387.5,349.5 Z"/></g>
<g><path style="opacity:1" fill="#846858" d="M 402.5,344.5 C 402.938,344.435 403.272,344.601 403.5,345C 402.167,347.191 400.5,349.024 398.5,350.5C 397.5,351.167 396.5,351.833 395.5,352.5C 395.5,352.167 395.5,351.833 395.5,351.5C 398.053,349.403 400.386,347.07 402.5,344.5 Z"/></g>
<g><path style="opacity:1" fill="#9a8370" d="M 264.5,353.5 C 267.167,353.5 269.833,353.5 272.5,353.5C 272.5,353.833 272.5,354.167 272.5,354.5C 269.5,355.833 266.5,355.833 263.5,354.5C 264.167,354.5 264.5,354.167 264.5,353.5 Z"/></g>
<g><path style="opacity:1" fill="#543127" d="M 188.5,382.5 C 187.883,382.389 187.383,382.056 187,381.5C 186.333,378.833 186.333,376.167 187,373.5C 193.821,364.01 202.987,358.51 214.5,357C 203.773,360.759 195.273,367.259 189,376.5C 188.505,378.473 188.338,380.473 188.5,382.5 Z"/></g>
<g><path style="opacity:1" fill="#98806e" d="M 188.5,382.5 C 190.167,382.5 191.833,382.5 193.5,382.5C 193.5,383.167 193.833,383.5 194.5,383.5C 193.903,384.139 193.07,384.472 192,384.5C 190.301,384.613 189.134,383.947 188.5,382.5 Z"/></g>
<g><path style="opacity:1" fill="#67483b" d="M 291.5,406.5 C 288.048,408.257 286.048,407.09 285.5,403C 286.086,398.817 288.253,397.65 292,399.5C 292.186,397.1 292.686,394.766 293.5,392.5C 294.662,397.467 294.829,402.467 294,407.5C 293.329,406.748 292.496,406.414 291.5,406.5 Z"/></g>
<g><path style="opacity:1" fill="#9b8471" d="M 154.5,394.5 C 152.833,394.5 151.167,394.5 149.5,394.5C 149.5,398.833 149.5,403.167 149.5,407.5C 148.514,403.03 148.181,398.363 148.5,393.5C 150.735,393.205 152.735,393.539 154.5,394.5 Z"/></g>
<g><path style="opacity:1" fill="#553329" d="M 337.5,392.5 C 338.376,392.369 339.043,392.702 339.5,393.5C 336.921,395.438 336.921,397.271 339.5,399C 337.834,401.48 337.001,404.313 337,407.5C 336.999,404.313 336.166,401.48 334.5,399C 336.165,397.174 337.165,395.007 337.5,392.5 Z"/></g>
<g><path style="opacity:1" fill="#745648" d="M 226.5,393.5 C 229.247,393.187 231.914,393.52 234.5,394.5C 233.675,395.386 232.675,395.719 231.5,395.5C 230.833,411.5 230.167,411.5 229.5,395.5C 227.821,395.715 226.821,395.048 226.5,393.5 Z"/></g>
<g><path style="opacity:1" fill="#533026" d="M 330.5,392.5 C 331.552,392.351 332.552,392.517 333.5,393C 330.106,394.565 329.772,396.565 332.5,399C 330.845,401.507 330.011,404.341 330,407.5C 329.999,404.313 329.166,401.48 327.5,399C 329.165,397.174 330.165,395.007 330.5,392.5 Z"/></g>
<g><path style="opacity:1" fill="#6d4e41" d="M 206.5,398.5 C 210.388,398.934 214.388,399.1 218.5,399C 219.61,401.737 219.777,404.571 219,407.5C 218.503,405.19 218.337,402.857 218.5,400.5C 217.167,400.5 215.833,400.5 214.5,400.5C 213.833,409.833 213.167,409.833 212.5,400.5C 211.178,400.33 210.011,400.663 209,401.5C 208.808,403.577 208.308,405.577 207.5,407.5C 206.516,404.572 206.183,401.572 206.5,398.5 Z"/></g>
<g><path style="opacity:1" fill="#644438" d="M 269.5,406.5 C 263.347,407.284 262.013,404.784 265.5,399C 267.791,398.985 269.958,398.818 272,398.5C 272.667,401.5 272.667,404.5 272,407.5C 271.329,406.748 270.496,406.414 269.5,406.5 Z"/></g>
<g><path style="opacity:1" fill="#735548" d="M 159.5,398.5 C 161.288,398.215 162.955,398.548 164.5,399.5C 163.675,400.386 162.675,400.719 161.5,400.5C 161.808,402.924 161.474,405.257 160.5,407.5C 159.516,404.572 159.183,401.572 159.5,398.5 Z"/></g>
<g><path style="opacity:1" fill="#694a3d" d="M 176.5,398.5 C 180.283,398.924 183.95,399.09 187.5,399C 189.65,401.555 189.983,404.388 188.5,407.5C 187.526,405.257 187.192,402.924 187.5,400.5C 186.178,400.33 185.011,400.663 184,401.5C 183.667,403.5 183.333,405.5 183,407.5C 182.503,405.19 182.337,402.857 182.5,400.5C 181.167,400.5 179.833,400.5 178.5,400.5C 178.808,402.924 178.474,405.257 177.5,407.5C 176.516,404.572 176.183,401.572 176.5,398.5 Z"/></g>
<g><path style="opacity:1" fill="#725447" d="M 196.5,398.5 C 198.369,400.635 199.036,403.302 198.5,406.5C 199.822,406.67 200.989,406.337 202,405.5C 202.186,403.1 202.686,400.766 203.5,398.5C 204.484,401.428 204.817,404.428 204.5,407.5C 197.493,408.519 194.826,405.519 196.5,398.5 Z"/></g>
<g><path style="opacity:1" fill="#745649" d="M 275.5,398.5 C 277.045,399.58 278.545,399.58 280,398.5C 281.261,398.759 282.261,399.426 283,400.5C 283.814,402.902 283.647,405.235 282.5,407.5C 281.526,405.257 281.192,402.924 281.5,400.5C 280.178,400.33 279.011,400.663 278,401.5C 277.808,403.577 277.308,405.577 276.5,407.5C 275.516,404.572 275.183,401.572 275.5,398.5 Z"/></g>
<g><path style="opacity:1" fill="#67483b" d="M 154.5,394.5 C 155.496,394.414 156.329,394.748 157,395.5C 158.153,400.705 155.987,403.038 150.5,402.5C 150.784,404.415 150.451,406.081 149.5,407.5C 149.5,403.167 149.5,398.833 149.5,394.5C 151.167,394.5 152.833,394.5 154.5,394.5 Z"/></g>
<g><path style="opacity:1" fill="#ede1c4" d="M 150.5,395.5 C 152.199,395.34 153.866,395.506 155.5,396C 156.833,397.333 156.833,398.667 155.5,400C 153.866,400.494 152.199,400.66 150.5,400.5C 150.5,398.833 150.5,397.167 150.5,395.5 Z"/></g>
<g><path style="opacity:1" fill="#e5d8bc" d="M 269.5,406.5 C 265.932,406.241 264.599,404.241 265.5,400.5C 271.459,399.778 272.793,401.778 269.5,406.5 Z"/></g>
<g><path style="opacity:1" fill="#eadec1" d="M 291.5,406.5 C 287.932,406.241 286.599,404.241 287.5,400.5C 289.167,400.5 290.833,400.5 292.5,400.5C 292.675,402.621 292.341,404.621 291.5,406.5 Z"/></g>
<g><path style="opacity:1" fill="#58352b" d="M 237.5,405.5 C 235.5,400.657 237.167,398.491 242.5,399C 243.687,400.019 244.687,401.186 245.5,402.5C 242.384,402.92 239.717,403.92 237.5,405.5 Z"/></g>
<g><path style="opacity:1" fill="#e7dbbf" d="M 238.5,400.5 C 240.429,400.231 242.095,400.731 243.5,402C 241.5,402.667 239.5,402.667 237.5,402C 238.056,401.617 238.389,401.117 238.5,400.5 Z"/></g>
<g><path style="opacity:1" fill="#67473a" d="M 249.5,398.5 C 251.541,398.854 253.374,398.854 255,398.5C 255.667,401.5 255.667,404.5 255,407.5C 252.766,407.626 250.432,407.293 248,406.5C 245.881,403.354 246.381,400.687 249.5,398.5 Z"/></g>
<g><path style="opacity:1" fill="#ebe0c3" d="M 249.5,400.5 C 255.175,400.86 255.842,402.86 251.5,406.5C 248.531,405.235 247.865,403.235 249.5,400.5 Z"/></g>
<g><path style="opacity:1" fill="#634337" d="M 319.5,398.5 C 325.643,399.026 326.976,401.86 323.5,407C 318.545,408.376 316.379,406.542 317,401.5C 317.698,400.309 318.531,399.309 319.5,398.5 Z"/></g>
<g><path style="opacity:1" fill="#e9ddc1" d="M 318.5,400.5 C 324.936,400.171 325.936,402.171 321.5,406.5C 319.077,405.288 318.077,403.288 318.5,400.5 Z"/></g>
<g><path style="opacity:1" fill="#5a392e" d="M 167.5,398.5 C 171.851,397.533 174.185,399.2 174.5,403.5C 172.076,403.192 169.743,403.526 167.5,404.5C 167.887,405.72 168.72,406.387 170,406.5C 171.162,405.813 172.328,405.647 173.5,406C 169.408,408.588 166.741,407.588 165.5,403C 165.519,401.167 166.185,399.667 167.5,398.5 Z"/></g>
<g><path style="opacity:1" fill="#e5d9bd" d="M 167.5,400.5 C 169.288,400.215 170.955,400.548 172.5,401.5C 171.667,401.833 170.833,402.167 170,402.5C 168.624,402.316 167.791,401.649 167.5,400.5 Z"/></g>
<g><path style="opacity:1" fill="#553429" d="M 237.5,405.5 C 239.5,406.626 241.5,406.793 243.5,406C 241.228,408.09 239.228,407.924 237.5,405.5 Z"/></g>
<g><path style="opacity:1" fill="#603f34" d="M 306.5,393.5 C 309.961,392.889 312.628,394.056 314.5,397C 312.742,396.656 310.909,396.156 309,395.5C 302.767,397.599 301.934,401.099 306.5,406C 309.497,406.755 311.997,405.922 314,403.5C 314.448,405.409 313.615,406.576 311.5,407C 304.24,408.033 301.407,404.867 303,397.5C 304.102,396.051 305.269,394.718 306.5,393.5 Z"/></g>
<g><path style="opacity:1" fill="#5a392e" d="M 343.5,398.5 C 347.851,397.533 350.185,399.2 350.5,403.5C 348.076,403.192 345.743,403.526 343.5,404.5C 343.887,405.72 344.72,406.387 346,406.5C 347.162,405.813 348.328,405.647 349.5,406C 345.408,408.588 342.741,407.588 341.5,403C 341.519,401.167 342.185,399.667 343.5,398.5 Z"/></g>
<g><path style="opacity:1" fill="#e5d9bd" d="M 343.5,400.5 C 345.288,400.215 346.955,400.548 348.5,401.5C 347.667,401.833 346.833,402.167 346,402.5C 344.624,402.316 343.791,401.649 343.5,400.5 Z"/></g>
<g><path style="opacity:1" fill="#5a392e" d="M 354.5,398.5 C 358.851,397.533 361.185,399.2 361.5,403.5C 359.076,403.192 356.743,403.526 354.5,404.5C 354.887,405.72 355.72,406.387 357,406.5C 358.162,405.813 359.328,405.647 360.5,406C 356.408,408.588 353.741,407.588 352.5,403C 352.519,401.167 353.185,399.667 354.5,398.5 Z"/></g>
<g><path style="opacity:1" fill="#e5d9bd" d="M 354.5,400.5 C 356.288,400.215 357.955,400.548 359.5,401.5C 358.667,401.833 357.833,402.167 357,402.5C 355.624,402.316 354.791,401.649 354.5,400.5 Z"/></g>
</svg>
